name D:\school\WTK\thesis\model\3dpredictsim\Results\Batchsim_tmt_linear_v2\Pog_s1_tmt_bCst_d02_k1000_ig24.mot
datacolumns 128
datarows 4
range 1.06429310 1.09622189
endheader
time	pelvis_tilt	pelvis_list	pelvis_rotation	pelvis_tx	pelvis_ty	pelvis_tz	hip_flexion_l	hip_adduction_l	hip_rotation_l	hip_flexion_r	hip_adduction_r	hip_rotation_r	knee_angle_l	knee_angle_r	ankle_angle_l	ankle_angle_r	subtalar_angle_l	subtalar_angle_r	tmt_angle_l	tmt_angle_r	mtp_angle_l	mtp_angle_r	lumbar_extension	lumbar_bending	lumbar_rotation	arm_flex_l	arm_add_l	arm_rot_l	arm_flex_r	arm_add_r	arm_rot_r	elbow_flex_l	elbow_flex_r	pro_sup_l	pro_sup_r	glut_med1_l/activation	glut_med2_l/activation	glut_med3_l/activation	glut_min1_l/activation	glut_min2_l/activation	glut_min3_l/activation	semimem_l/activation	semiten_l/activation	bifemlh_l/activation	bifemsh_l/activation	sar_l/activation	add_long_l/activation	add_brev_l/activation	add_mag1_l/activation	add_mag2_l/activation	add_mag3_l/activation	tfl_l/activation	pect_l/activation	grac_l/activation	glut_max1_l/activation	glut_max2_l/activation	glut_max3_l/activation	iliacus_l/activation	psoas_l/activation	quad_fem_l/activation	gem_l/activation	peri_l/activation	rect_fem_l/activation	vas_med_l/activation	vas_int_l/activation	vas_lat_l/activation	med_gas_l/activation	lat_gas_l/activation	soleus_l/activation	tib_post_l/activation	flex_dig_l/activation	flex_hal_l/activation	tib_ant_l/activation	per_brev_l/activation	per_long_l/activation	per_tert_l/activation	ext_dig_l/activation	ext_hal_l/activation	ercspn_l/activation	intobl_l/activation	extobl_l/activation	glut_med1_r/activation	glut_med2_r/activation	glut_med3_r/activation	glut_min1_r/activation	glut_min2_r/activation	glut_min3_r/activation	semimem_r/activation	semiten_r/activation	bifemlh_r/activation	bifemsh_r/activation	sar_r/activation	add_long_r/activation	add_brev_r/activation	add_mag1_r/activation	add_mag2_r/activation	add_mag3_r/activation	tfl_r/activation	pect_r/activation	grac_r/activation	glut_max1_r/activation	glut_max2_r/activation	glut_max3_r/activation	iliacus_r/activation	psoas_r/activation	quad_fem_r/activation	gem_r/activation	peri_r/activation	rect_fem_r/activation	vas_med_r/activation	vas_int_r/activation	vas_lat_r/activation	med_gas_r/activation	lat_gas_r/activation	soleus_r/activation	tib_post_r/activation	flex_dig_r/activation	flex_hal_r/activation	tib_ant_r/activation	per_brev_r/activation	per_long_r/activation	per_tert_r/activation	ext_dig_r/activation	ext_hal_r/activation	ercspn_r/activation	intobl_r/activation	extobl_r/activation	
          1.06429310	         -2.87363403	          1.07344919	          4.65319456	          1.33036637	          0.87237743	         -0.00168526	        -17.44893986	          1.35380253	          6.26617145	         26.85328663	         -0.43198951	         -1.55395444	         -6.59715531	         -8.68965200	         -8.76443558	          6.05901271	          9.00262706	          4.10260402	          1.04097059	          0.03385694	         26.72398353	         -0.10143011	          0.58026980	         -3.12430781	         -1.63498047	          3.95943616	        -13.48511915	         12.94270093	         -8.74728430	        -13.44975852	         14.30435158	         24.78358049	         16.24055261	         86.51662706	         86.51662706	          0.28607472	          0.09070857	          0.08160554	          0.26107209	          0.15682109	          0.09254876	          0.05000124	          0.05000024	          0.05000021	          0.05000026	          0.09577372	          0.08853882	          0.05000134	          0.05000130	          0.05000293	          0.05000111	          0.21812537	          0.05880080	          0.05000181	          0.05000496	          0.05000314	          0.05000272	          0.30296036	          0.57075854	          0.05000206	          0.05000147	          0.06931112	          0.22123858	          0.10895259	          0.07180768	          0.09402555	          0.17017067	          0.24497478	          0.19873726	          0.18462001	          0.19053434	          0.24103851	          0.05000002	          0.09684195	          0.15743167	          0.05000018	          0.05000005	          0.05000017	          0.05000001	          0.05000005	          0.05000007	          0.12624778	          0.05000124	          0.09140395	          0.05000040	          0.05000055	          0.05000290	          0.05886891	          0.05886873	          0.05886899	          0.05000056	          0.05000353	          0.05886884	          0.05887245	          0.13532053	          0.14621884	          0.12927328	          0.05000222	          0.05003803	          0.05004398	          0.06230888	          0.09133117	          0.12576099	          0.05000048	          0.05000040	          0.14796706	          0.05000191	          0.06009115	          0.05347924	          0.12659946	          0.14200845	          0.10174407	          0.05886908	          0.05886905	          0.05886910	          0.05000016	          0.05000172	          0.05815301	          0.49044298	          0.28296123	          0.16778999	          0.25291048	          0.51849684	          0.30140396	          0.05000035	          0.13319070	          0.13321845	
          1.07493603	         -2.85502667	          1.11686363	          4.80591705	          1.34702529	          0.87108847	         -0.00153555	        -17.19090681	          1.23105038	          5.99371257	         26.28600816	         -0.28445686	         -1.31807135	         -8.83090940	         -8.69301194	         -9.44462399	          5.47823120	         10.04579857	          3.66634046	          0.94016522	          0.05048507	         27.40425516	         -0.08647366	          0.79282936	         -2.93304475	         -1.68524355	          3.73229864	        -13.52160895	         13.27451471	         -9.87690997	        -13.45321492	         14.14394135	         25.56334817	         16.27179635	         86.51662706	         86.51662706	          0.24297532	          0.07704261	          0.06931106	          0.22173961	          0.13319478	          0.07860559	          0.05000166	          0.05000020	          0.05000023	          0.05000020	          0.08134500	          0.15323857	          0.17024719	          0.09302535	          0.05000588	          0.05000098	          0.18526309	          0.10369354	          0.05000357	          0.05000274	          0.05000172	          0.05000157	          0.25731696	          0.48476934	          0.05472728	          0.05886972	          0.05886918	          0.18790721	          0.13318709	          0.14174605	          0.11344524	          0.14453309	          0.20806737	          0.16879590	          0.15680560	          0.16182912	          0.20472429	          0.05000002	          0.08225205	          0.13371407	          0.05000016	          0.05000011	          0.05000017	          0.05032857	          0.07247486	          0.05000111	          0.10722764	          0.06460528	          0.16327397	          0.05886893	          0.05800275	          0.05000225	          0.05000003	          0.05000012	          0.05000005	          0.05000011	          0.05000093	          0.05000058	          0.05000309	          0.21106763	          0.21184764	          0.14019877	          0.05000054	          0.05000127	          0.05000036	          0.05886923	          0.08080105	          0.16221142	          0.05000015	          0.05000023	          0.21740221	          0.09952615	          0.13197073	          0.06931642	          0.28398263	          0.29953446	          0.23460866	          0.05000000	          0.05000001	          0.05000000	          0.05000015	          0.05000172	          0.05000027	          0.58008281	          0.31183047	          0.18433202	          0.49194687	          0.56314898	          0.30505617	          0.05000003	          0.11312445	          0.11314801	
          1.08557896	         -2.83015892	          1.14686782	          4.93708214	          1.36390227	          0.86963400	         -0.00139997	        -16.83929440	          1.10334547	          5.71365054	         25.60439517	         -0.16097652	         -1.04316458	        -11.24809033	         -9.25154867	        -10.06950497	          4.83217441	         11.05845520	          3.20831868	          0.79590186	         -0.03762123	         27.60665820	         -0.13752576	          1.01908554	         -2.71468339	         -1.72518637	          3.44617622	        -13.56536046	         13.56742549	        -11.00873242	        -13.46743074	         14.04198625	         26.34444239	         16.29718283	         86.51662706	         86.51662706	          0.25014239	          0.06543554	          0.05886883	          0.18833297	          0.11312797	          0.06676307	          0.05000202	          0.05000036	          0.05000048	          0.05000011	          0.06909003	          0.16667679	          0.31686903	          0.09333145	          0.05886755	          0.11615253	          0.15735178	          0.08807299	          0.05000134	          0.05001140	          0.05001419	          0.05884726	          0.21855011	          0.42034611	          0.05000259	          0.05000118	          0.05000016	          0.15959747	          0.11312149	          0.12039096	          0.09635389	          0.12275801	          0.17672035	          0.14336543	          0.13318160	          0.13744841	          0.17388102	          0.05000161	          0.06986227	          0.14272861	          0.05000031	          0.15867516	          0.05000211	          0.05044937	          0.06155595	          0.06031583	          0.25530512	          0.17916944	          0.30645984	          0.05000044	          0.05000032	          0.24735115	          0.07779569	          0.05000025	          0.07360982	          0.05000010	          0.05000119	          0.06931160	          0.09158246	          0.17926882	          0.17993160	          0.14272289	          0.05000083	          0.06931119	          0.05000210	          0.05000033	          0.06862784	          0.13777327	          0.05219339	          0.05000124	          0.18464889	          0.08453192	          0.20717145	          0.05887335	          0.24119839	          0.25440721	          0.19926300	          0.05886914	          0.05886917	          0.05886911	          0.05884530	          0.05886916	          0.05886915	          0.49268869	          0.28647273	          0.15656128	          0.41783119	          0.57626228	          0.25909707	          0.05000003	          0.09608134	          0.09610135	
          1.09622189	         -2.80211935	          1.16244005	          5.04339987	          1.38078295	          0.86800505	         -0.00126977	        -16.38977847	          0.97504541	          5.42897074	         24.80873408	         -0.03923158	         -0.74943635	        -13.83417632	         -9.85164805	        -10.51741502	          4.34815109	         12.00175936	          2.72062666	          0.60278933	         -0.01383308	         27.07011421	         -0.14656374	          1.23921689	         -2.47042832	         -1.75468590	          3.13536962	        -13.61583979	         13.82982202	        -12.09670194	        -13.49348323	         14.02784644	         27.11538196	         16.28858923	         86.51662706	         86.51662706	          0.21245651	          0.05557717	          0.05000003	          0.15995973	          0.09608439	          0.05670475	          0.05001219	          0.05000048	          0.05000039	          0.05000035	          0.05869155	          0.18593310	          0.31557247	          0.07927116	          0.05000321	          0.09865369	          0.13364557	          0.07480885	          0.05000092	          0.05000063	          0.05000042	          0.05000039	          0.18562380	          0.37589109	          0.05000005	          0.05000031	          0.05000022	          0.13555283	          0.09607888	          0.10225313	          0.08183744	          0.10426353	          0.15009602	          0.12176627	          0.11311680	          0.11674090	          0.14768459	          0.08792201	          0.08848857	          0.12122544	          0.10486205	          0.22183914	          0.10871641	          0.08666626	          0.05228205	          0.05122878	          0.31450282	          0.31508701	          0.39684087	          0.20386325	          0.16845569	          0.23107357	          0.06607573	          0.09237273	          0.07003336	          0.07964896	          0.05000138	          0.05886933	          0.07778487	          0.15226072	          0.18665664	          0.16764158	          0.05000025	          0.05886935	          0.08160601	          0.22308734	          0.17445927	          0.17789919	          0.05000020	          0.05000018	          0.15683012	          0.07179685	          0.20622899	          0.05000361	          0.20485995	          0.21607877	          0.16924246	          0.05000004	          0.05000009	          0.05000000	          0.05000000	          0.05000015	          0.05000011	          0.63030598	          0.30116588	          0.15277674	          0.65945646	          0.64446595	          0.43245965	          0.05000010	          0.08160592	          0.08162291	
